# xmcd
#
# Track frame offsets:
#	150
#	15397
#	46840
#	68257
#	93525
#	117330
#	168900
#	182125
# Disc length: 2869 seconds
# Revision: 3
# Processed by: cddbd v1.5.1PL0 Copyright (c) Steve Scherf et al.
#
# Submitted via: libkcddb 0.10
#
DISCID=580b3308
DTITLE=Eric Clapton - Reziprocal Affection
DYEAR=1900
DGENRE=Unknown
TTITLE0=Tulsa Time
TTITLE1=I shot the Sheriff
TTITLE2=Wonderful Tonight
TTITLE3=She´s waiting
TTITLE4=Lay down Sally
TTITLE5=Badge/Let it rain
TTITLE6=Poor little man
TTITLE7=Layla
EXTD=
EXTT0=
EXTT1=
EXTT2=
EXTT3=
EXTT4=
EXTT5=
EXTT6=
EXTT7=
PLAYORDER=
